<?xml version="1.0" encoding="UTF-8" standalone="no"?>
<svg
   xmlns:dc="http://purl.org/dc/elements/1.1/"
   xmlns:cc="http://creativecommons.org/ns#"
   xmlns:rdf="http://www.w3.org/1999/02/22-rdf-syntax-ns#"
   xmlns:svg="http://www.w3.org/2000/svg"
   xmlns="http://www.w3.org/2000/svg"
   xmlns:sodipodi="http://sodipodi.sourceforge.net/DTD/sodipodi-0.dtd"
   xmlns:inkscape="http://www.inkscape.org/namespaces/inkscape"
   width="26.132988mm"
   height="33.907928mm"
   viewBox="0 0 26.132987 33.907929"
   version="1.1"
   id="svg1147"
   inkscape:version="0.92.4 (5da689c313, 2019-01-14)"
   sodipodi:docname="divil_icon.svg">
  <defs
     id="defs1141">
    <clipPath
       id="clip1-5-8-5-2">
      <path
         id="path5283-7-3-9"
         d="M 0,0 H 73.304688 V 73.304688 H 0 Z m 0,0"
         inkscape:connector-curvature="0" />
    </clipPath>
    <clipPath
       id="clip2-6-3-4-4">
      <path
         id="path5286-5-0-8-8"
         d="M 17,0 H 73.304688 V 57 H 17 Z m 0,0"
         inkscape:connector-curvature="0" />
    </clipPath>
    <clipPath
       id="clip3-1-7-5-5">
      <path
         id="path5289-5-8-7"
         d="M 0,0 H 67 V 73.304688 H 0 Z m 0,0"
         inkscape:connector-curvature="0" />
    </clipPath>
    <clipPath
       id="clip4-7-1-0-6">
      <path
         id="path5292-8-5-9-4"
         d="M 6,0 H 73.304688 V 67 H 6 Z m 0,0"
         inkscape:connector-curvature="0" />
    </clipPath>
    <clipPath
       id="clip5-7-4-6-5">
      <path
         id="path5295-8-7-7"
         d="M 0,6 H 73.304688 V 73.304688 H 0 Z m 0,0"
         inkscape:connector-curvature="0" />
    </clipPath>
  </defs>
  <sodipodi:namedview
     id="base"
     pagecolor="#ffffff"
     bordercolor="#666666"
     borderopacity="1.0"
     inkscape:pageopacity="0.0"
     inkscape:pageshadow="2"
     inkscape:zoom="1"
     inkscape:cx="16.710708"
     inkscape:cy="100.74288"
     inkscape:document-units="mm"
     inkscape:current-layer="layer1"
     inkscape:document-rotation="0"
     showgrid="false"
     fit-margin-top="0"
     fit-margin-left="0"
     fit-margin-right="0"
     fit-margin-bottom="0"
     inkscape:window-width="2560"
     inkscape:window-height="1360"
     inkscape:window-x="-11"
     inkscape:window-y="-11"
     inkscape:window-maximized="1" />
  <metadata
     id="metadata1144">
    <rdf:RDF>
      <cc:Work
         rdf:about="">
        <dc:format>image/svg+xml</dc:format>
        <dc:type
           rdf:resource="http://purl.org/dc/dcmitype/StillImage" />
        <dc:title />
      </cc:Work>
    </rdf:RDF>
  </metadata>
  <g
     inkscape:label="Layer 1"
     inkscape:groupmode="layer"
     id="layer1"
     transform="translate(-30.709977,-82.535272)">
    <path
       sodipodi:nodetypes="ccsccccscsssscccccccsscccc"
       inkscape:connector-curvature="0"
       id="path2863"
       d="m 49.946186,82.535359 c 0.90836,2.795355 2.093806,4.278715 0.339682,6.268184 -1.965,-0.737786 -4.400747,-1.106735 -7.307326,-1.106735 H 36.128896 V 107.6524 l 3.334032,-3.08088 V 90.436706 h 4.027311 c 3.400101,0 5.886902,0.770213 7.460404,2.310723 1.584508,1.529475 2.376734,3.94479 2.376734,7.24583 0,3.323081 -0.794907,5.752081 -2.376734,7.295331 -1.576183,1.53775 -4.094198,1.83196 -7.460404,2.31078 -1.567349,0.22293 -2.74653,0.0888 -4.702048,0.66884 -2.069479,0.6138 -5.006143,3.22552 -5.006143,3.22552 l -0.01552,-1.67612 -3.056551,4.62559 5.481489,-2.07848 -1.992884,-0.50357 c 0,0 3.060531,-1.4491 4.786405,-1.47105 l 3.993529,-0.0509 c 4.753158,-0.0605 8.252658,-0.99582 10.497368,-2.98743 2.24474,-1.99165 3.367081,-5.11116 3.367081,-9.358521 0,-4.225346 -1.11681,-7.328323 -3.350514,-9.308959 -0.296559,-0.264414 -0.615781,-0.511076 -0.957129,-0.740382 l 0.100641,0.0087 c 3.435914,-2.033439 1.181523,-4.519112 -2.689804,-7.417336 z"
       style="font-style:normal;font-variant:normal;font-weight:normal;font-stretch:normal;font-size:1099.67004395px;line-height:1.25;font-family:sans-serif;-inkscape-font-specification:'sans-serif, Normal';text-align:start;letter-spacing:0px;word-spacing:0px;writing-mode:lr-tb;text-anchor:start;fill:#d40000;fill-opacity:1;stroke:none;stroke-width:0.028818" />
  </g>
</svg>
