<?xml version="1.0" encoding="UTF-8" standalone="no"?>
<!-- Created with Inkscape (http://www.inkscape.org/) -->

<svg
   xmlns:dc="http://purl.org/dc/elements/1.1/"
   xmlns:cc="http://creativecommons.org/ns#"
   xmlns:rdf="http://www.w3.org/1999/02/22-rdf-syntax-ns#"
   xmlns:svg="http://www.w3.org/2000/svg"
   xmlns="http://www.w3.org/2000/svg"
   xmlns:sodipodi="http://sodipodi.sourceforge.net/DTD/sodipodi-0.dtd"
   xmlns:inkscape="http://www.inkscape.org/namespaces/inkscape"
   version="1.1"
   id="svg2"
   xml:space="preserve"
   width="43.438667"
   height="42.366489"
   viewBox="0 0 43.438667 42.366489"
   sodipodi:docname="info-icon.svg"
   inkscape:version="0.92.4 (5da689c313, 2019-01-14)"><metadata
     id="metadata8"><rdf:RDF><cc:Work
         rdf:about=""><dc:format>image/svg+xml</dc:format><dc:type
           rdf:resource="http://purl.org/dc/dcmitype/StillImage" /><dc:title></dc:title></cc:Work></rdf:RDF></metadata><defs
     id="defs6" /><sodipodi:namedview
     pagecolor="#ffffff"
     bordercolor="#666666"
     borderopacity="1"
     objecttolerance="10"
     gridtolerance="10"
     guidetolerance="10"
     inkscape:pageopacity="0"
     inkscape:pageshadow="2"
     inkscape:window-width="2560"
     inkscape:window-height="1360"
     id="namedview4"
     showgrid="false"
     inkscape:zoom="4.005133"
     inkscape:cx="91.826917"
     inkscape:cy="29.303971"
     inkscape:window-x="-11"
     inkscape:window-y="-11"
     inkscape:window-maximized="1"
     inkscape:current-layer="g10"
     fit-margin-top="0"
     fit-margin-left="0"
     fit-margin-right="0"
     fit-margin-bottom="0" /><g
     id="g10"
     inkscape:groupmode="layer"
     inkscape:label="ink_ext_XXXXXX"
     transform="matrix(1.3333333,0,0,-1.3333333,-180.25402,607.32972)"><path
       style="fill:#1b1817;fill-opacity:1;fill-rule:evenodd;stroke:none;stroke-width:0.13333331"
       d="M 21.716797 0 C 9.7247972 0 0 9.7247034 0 21.720703 C 0 31.31537 6.2228492 39.456745 14.853516 42.330078 C 15.940182 42.528745 16.335938 41.85725 16.335938 41.28125 C 16.335938 40.76525 16.317307 39.399891 16.306641 37.587891 L 16.419922 24.953125 C 16.617255 23.550458 17.178828 22.591495 17.798828 22.048828 C 20.238801 19.647308 23.173705 19.575455 25.701172 22.048828 C 26.479839 22.719495 27.173828 24.028021 27.173828 26.054688 C 27.173828 28.957354 27.103516 40.56925 27.103516 41.28125 C 27.103516 41.862583 27.496323 42.538172 28.597656 42.326172 C 37.221656 39.447505 43.439453 31.314036 43.439453 21.720703 C 43.439453 9.7247034 33.712797 0 21.716797 0 z M 21.71875 6.2539062 A 5.2965039 5.4951228 0 0 1 27.015625 11.748047 A 5.2965039 5.4951228 0 0 1 21.71875 17.244141 A 5.2965039 5.4951228 0 0 1 16.421875 11.748047 A 5.2965039 5.4951228 0 0 1 21.71875 6.2539062 z "
       transform="matrix(0.75000002,0,0,-0.75000002,135.19052,455.4973)"
       id="path16" /></g></svg>